<?xml version="1.0" standalone="no"?>
<!DOCTYPE svg PUBLIC "-//W3C//DTD SVG 20010904//EN"
 "http://www.w3.org/TR/2001/REC-SVG-20010904/DTD/svg10.dtd">
<svg version="1.0" xmlns="http://www.w3.org/2000/svg"
 width="526.000000pt" height="526.000000pt" viewBox="0 0 526.000000 526.000000"
 preserveAspectRatio="xMidYMid meet">
<metadata>
Created by potrace 1.14, written by Peter Selinger 2001-2017
</metadata>
<g transform="translate(0.000000,526.000000) scale(0.100000,-0.100000)"
fill="#000000" stroke="none">
<path d="M2710 4770 c-11 -11 -20 -17 -20 -12 0 4 -27 7 -60 7 -33 0 -60 -3
-60 -6 0 -3 -15 -5 -32 -4 -22 1 -38 -5 -50 -19 -10 -12 -17 -16 -18 -8 0 6 5
12 12 12 6 0 8 3 5 6 -8 8 -106 -57 -107 -70 0 -12 -21 -27 -97 -72 -35 -21
-63 -42 -63 -47 0 -5 -16 -25 -35 -44 -19 -19 -35 -40 -35 -47 0 -13 -35 -46
-49 -46 -4 0 -21 -11 -37 -25 -16 -15 -41 -33 -56 -42 -28 -17 -49 -55 -49
-89 -1 -32 23 -108 37 -120 14 -11 10 -64 -6 -74 -14 -8 -49 -109 -55 -159
-14 -102 -19 -135 -31 -188 -18 -77 -18 -532 -1 -549 3 -3 1 -21 -5 -40 -14
-54 -20 -127 -20 -269 -1 -180 14 -248 64 -295 26 -23 84 -21 124 5 30 19 34
19 34 -3 0 -22 45 -155 65 -191 8 -14 41 -55 75 -91 33 -35 60 -68 60 -72 0
-4 15 -22 32 -40 60 -61 113 -151 123 -209 3 -19 13 -57 21 -85 8 -28 17 -62
19 -74 2 -13 16 -62 30 -109 13 -47 26 -95 28 -106 1 -11 6 -25 9 -31 7 -11
-55 -84 -71 -84 -6 0 -16 -9 -24 -20 -8 -11 -17 -17 -20 -13 -4 3 -7 1 -7 -5
0 -9 -23 -17 -80 -27 -22 -4 -80 -31 -80 -37 0 -4 -7 -8 -15 -8 -8 0 -15 -4
-15 -8 0 -5 -6 -9 -14 -9 -21 0 -86 -33 -86 -43 0 -6 -3 -9 -7 -8 -5 1 -19 -4
-33 -9 -67 -29 -87 -36 -105 -40 -10 -2 -22 -8 -25 -13 -3 -5 -15 -11 -25 -13
-11 -1 -26 -6 -32 -10 -8 -5 -13 -3 -13 5 0 11 -2 11 -8 0 -5 -7 -21 -15 -35
-17 -15 -3 -39 -7 -54 -10 -54 -9 -130 -43 -210 -92 -29 -18 -53 -29 -53 -25
0 4 -7 -2 -16 -13 -9 -12 -18 -16 -22 -10 -9 12 -44 16 -36 4 5 -8 -10 -13
-29 -10 -5 1 -5 -4 -1 -10 5 -8 -1 -10 -19 -7 -18 4 -24 1 -20 -9 3 -8 13 -11
24 -8 11 3 28 8 40 11 12 3 31 7 42 9 33 4 77 27 71 36 -3 5 0 9 5 9 20 0 26
3 36 17 6 8 17 15 25 16 8 2 21 6 28 10 6 5 12 4 12 -1 0 -6 10 -8 23 -5 18 4
19 3 7 -6 -11 -8 -12 -11 -2 -11 9 0 11 -7 7 -20 -4 -12 -2 -20 5 -20 7 0 10
-6 7 -14 -3 -8 2 -16 14 -19 18 -5 19 -9 9 -27 -11 -21 -11 -21 19 -5 28 14
46 5 21 -10 -5 -3 -10 -11 -10 -17 0 -7 4 -7 13 1 8 6 17 8 20 4 4 -3 13 0 22
7 17 14 21 0 4 -17 -7 -7 -7 -13 -1 -17 5 -3 15 1 22 9 13 16 31 20 29 8 -3
-20 3 -23 22 -13 16 9 24 8 39 -5 11 -10 16 -24 12 -33 -5 -15 -4 -15 11 -3 9
7 17 10 17 6 0 -4 7 -2 15 5 9 8 15 9 15 2 0 -6 -4 -14 -10 -17 -22 -14 -8
-23 21 -15 25 7 30 6 25 -5 -8 -21 9 -27 24 -10 11 13 14 13 26 -2 11 -15 15
-16 23 -4 5 8 16 11 25 8 8 -3 18 -2 21 3 13 20 32 9 47 -27 25 -61 31 -77 32
-88 1 -5 8 -10 16 -10 8 0 14 -8 14 -18 -2 -15 8 -21 28 -18 4 0 5 -6 1 -15
-5 -13 -8 -13 -15 -2 -7 9 -8 8 -4 -5 3 -10 6 -25 6 -33 0 -8 5 -14 11 -14 5
0 7 5 3 12 -4 6 -3 9 2 5 5 -3 9 -22 8 -42 -2 -28 1 -34 11 -25 9 8 15 8 20 0
3 -6 11 -8 16 -4 5 3 7 10 4 15 -4 5 2 6 12 2 16 -6 17 -5 3 12 -8 10 -10 16
-3 12 6 -4 13 -4 16 0 2 5 2 3 1 -4 -4 -17 13 -26 19 -11 2 7 3 5 1 -5 -2 -13
2 -16 17 -12 10 4 19 2 19 -2 0 -12 -22 -33 -34 -33 -6 0 -4 5 4 11 13 9 12
10 -3 5 -12 -4 -16 -2 -11 6 5 7 3 8 -6 3 -9 -6 -11 -4 -5 6 4 8 0 6 -11 -3
-15 -14 -16 -20 -5 -30 10 -11 11 -9 5 7 -7 18 -6 19 10 6 12 -10 14 -17 6
-25 -5 -5 -10 -19 -10 -30 0 -19 0 -19 -22 0 -13 10 -18 12 -11 5 8 -10 9 -20
2 -33 -6 -12 -6 -18 1 -18 5 0 10 8 10 18 0 14 2 15 10 2 8 -12 10 -12 10 -1
0 8 3 11 7 8 3 -4 15 1 26 10 10 10 21 17 23 16 10 -7 24 -2 24 8 0 8 -4 8
-14 0 -10 -8 -16 -9 -21 -1 -3 5 -11 10 -16 10 -6 0 -7 -5 -3 -12 4 -7 3 -8
-5 -4 -18 12 -2 28 21 20 12 -3 18 -2 15 3 -5 8 32 10 41 3 1 -2 6 -3 10 -4 4
0 24 -18 42 -38 35 -39 50 -47 50 -27 0 5 -4 7 -10 4 -5 -3 -10 -2 -10 4 0 5
9 9 19 8 11 0 19 -6 18 -12 -1 -5 8 -9 21 -8 12 2 22 -2 22 -9 0 -6 3 -8 7 -5
3 4 13 1 21 -6 13 -10 15 -9 8 3 -4 8 0 6 8 -4 11 -14 16 -15 16 -6 0 9 5 8
16 -6 8 -10 13 -13 9 -6 -5 9 0 11 17 8 51 -11 64 -10 84 10 14 14 31 20 54
18 25 -2 38 4 53 22 10 13 23 22 28 19 5 -4 9 -1 9 5 0 8 6 7 21 -1 15 -8 19
-8 15 0 -4 6 -2 11 4 11 6 0 9 4 6 9 -3 5 7 11 24 13 16 2 27 1 24 -4 -9 -14
7 -49 18 -42 7 5 9 0 6 -14 -8 -29 26 -63 57 -58 14 3 25 1 25 -4 0 -5 7 -7
15 -4 10 4 14 1 12 -7 -2 -8 -2 -11 0 -6 3 4 9 5 14 2 5 -4 6 2 2 12 -6 16 -5
16 10 5 9 -8 22 -10 29 -6 7 4 25 8 40 9 14 1 34 7 42 14 13 11 19 11 31 1 13
-11 14 -10 9 6 -4 10 -4 16 1 12 4 -4 14 -3 22 3 10 9 13 8 13 -1 0 -9 4 -9
13 -3 6 6 22 13 34 16 20 4 21 3 11 -16 -10 -19 -8 -19 20 4 18 13 30 31 28
40 -2 9 2 16 8 16 6 0 12 -11 12 -24 1 -12 -2 -20 -7 -17 -5 3 -9 1 -9 -4 0
-6 6 -12 14 -15 9 -4 13 3 12 21 -1 21 3 26 18 24 10 -2 16 0 13 5 -3 4 1 17
9 28 8 10 14 14 14 9 0 -6 -5 -15 -12 -22 -8 -8 -8 -12 -1 -12 15 0 34 25 25
35 -4 5 -2 5 5 1 7 -4 10 -14 7 -24 -5 -16 -4 -16 8 -1 10 12 16 13 24 5 6 -6
9 -17 6 -24 -6 -19 6 -14 18 7 7 14 7 22 -2 27 -7 5 -8 3 -3 -6 5 -9 4 -11 -4
-6 -9 6 -9 11 -1 21 8 9 8 15 0 20 -5 3 -10 12 -10 18 0 7 5 4 11 -6 6 -10 15
-14 22 -10 7 4 5 -2 -3 -13 -8 -10 -10 -15 -5 -11 5 4 15 -3 22 -15 9 -18 12
-19 13 -6 0 9 -5 20 -10 23 -6 4 -8 11 -5 16 4 5 -1 12 -9 15 -9 3 -16 14 -16
23 1 14 2 14 11 -1 5 -10 15 -18 20 -18 6 0 7 5 3 12 -4 6 -3 8 3 5 6 -4 16 7
23 24 9 21 15 27 21 17 4 -7 11 -9 15 -5 4 3 1 14 -7 24 -8 9 -9 14 -2 10 7
-4 16 0 22 10 6 10 11 13 11 8 0 -6 -5 -16 -11 -22 -7 -7 -6 -12 6 -17 9 -3
13 -2 10 3 -3 5 -1 12 5 16 6 4 8 11 5 16 -4 5 -1 10 4 10 6 1 16 3 21 4 6 1
13 3 18 4 4 1 0 5 -7 10 -9 6 -23 6 -35 0 -20 -10 -20 -9 -3 5 11 8 26 12 35
8 15 -5 16 -4 2 14 -14 17 -14 18 1 6 13 -10 19 -9 29 3 7 9 10 18 6 22 -3 3
-6 1 -6 -5 0 -7 -4 -12 -10 -12 -17 0 -11 14 15 33 23 17 24 17 20 -4 -3 -12
-11 -30 -20 -39 -14 -16 -14 -18 1 -24 9 -4 14 -9 11 -13 -4 -3 -13 0 -21 6
-13 11 -15 9 -11 -8 2 -12 0 -19 -6 -16 -5 4 -8 1 -7 -7 2 -8 -4 -12 -16 -10
-11 2 -15 -1 -11 -7 3 -6 12 -11 20 -11 8 0 19 -8 24 -17 6 -10 11 -13 11 -8
0 6 -6 17 -12 24 -11 10 -8 16 11 32 19 16 26 17 32 7 6 -8 9 -9 9 -2 0 6 -7
17 -15 24 -8 7 -15 17 -15 23 0 6 11 1 23 -11 21 -20 24 -20 24 -5 0 10 -7 26
-15 36 -14 15 -13 17 1 17 10 0 17 -4 17 -10 0 -5 5 -10 10 -10 18 0 11 18
-10 25 -14 5 -19 14 -18 40 l1 33 18 -21 c10 -12 18 -16 19 -9 0 6 6 12 14 12
8 0 18 4 21 10 4 7 -3 7 -20 0 -34 -13 -35 -13 -35 4 0 8 -6 17 -12 19 -8 3
-6 6 5 6 9 1 17 6 17 12 0 5 -6 7 -12 3 -10 -6 -10 -5 -1 8 7 8 9 18 5 22 -4
4 0 6 8 4 10 -2 14 3 12 15 -2 9 1 17 6 17 12 0 10 -54 -2 -62 -6 -4 -7 -10
-3 -14 4 -4 14 1 21 12 8 10 11 21 8 24 -4 3 -8 11 -10 19 -2 9 3 11 15 7 16
-5 16 -5 2 6 -9 7 -15 23 -14 35 1 12 -2 20 -6 17 -4 -2 -4 9 1 26 6 19 5 32
-2 36 -7 5 -8 2 -3 -6 5 -9 4 -11 -3 -6 -15 9 -15 11 5 27 14 12 16 12 8 0 -5
-10 -4 -12 4 -7 9 6 9 11 0 22 -9 11 -9 17 1 29 7 8 16 13 20 10 13 -8 5 21
-10 41 -14 16 -13 17 10 11 21 -5 22 -4 10 6 -9 7 -15 19 -14 27 0 8 -6 26
-14 39 -8 13 -10 21 -4 17 5 -3 12 4 15 15 3 12 10 18 15 15 14 -8 43 4 36 15
-3 5 2 6 10 3 11 -4 16 0 16 11 0 10 5 13 12 9 8 -5 9 -2 4 11 -5 14 -4 16 7
7 10 -9 17 -8 27 1 10 9 11 9 6 0 -5 -8 -1 -13 9 -13 9 0 13 5 10 10 -3 6 -2
10 3 10 5 0 8 11 7 25 -2 14 1 23 6 19 5 -3 9 3 9 13 1 17 2 16 17 -2 13 -16
15 -17 10 -2 -4 11 -1 17 9 17 9 0 12 5 8 13 -6 10 -4 10 7 0 16 -16 29 -17
29 -2 0 5 -6 7 -12 3 -7 -4 2 7 21 25 19 17 30 31 25 31 -5 1 5 8 21 18 32 17
36 19 60 21 8 0 15 6 15 12 0 7 14 25 30 41 17 15 30 33 30 39 0 5 4 8 9 4 6
-3 14 3 20 12 6 10 11 15 11 11 0 -3 18 10 40 29 41 37 52 75 27 90 -8 4 -16
16 -20 26 -3 9 -13 17 -21 17 -10 0 -13 6 -10 15 4 9 0 15 -9 15 -9 0 -23 8
-33 17 -15 15 -37 18 -128 19 -61 0 -122 -4 -135 -8 -13 -5 -48 -10 -78 -13
-30 -2 -57 -6 -61 -9 -11 -7 -104 -19 -144 -19 -24 0 -49 9 -70 25 -34 26 -83
45 -129 50 -73 9 -96 57 -114 233 -2 22 -7 58 -11 81 -5 34 0 54 29 117 20 42
34 77 32 77 -2 0 5 24 16 52 10 29 19 60 19 68 0 8 12 40 26 70 23 49 27 53
38 38 48 -65 173 -46 177 26 3 54 -1 104 -8 126 -10 28 -9 85 2 157 13 84 14
97 5 108 -5 6 -5 16 -1 24 5 7 2 31 -6 54 -23 66 -23 69 -27 318 -1 129 -6
241 -10 247 -4 6 -9 40 -12 74 -2 35 -7 79 -10 98 -3 19 -7 44 -8 55 -2 11 -6
34 -9 50 -4 17 -9 44 -12 62 -3 18 -9 42 -14 55 -5 13 -9 27 -8 31 0 9 -53
115 -66 132 -37 49 -93 154 -89 167 1 3 -5 12 -13 18 -8 7 -15 18 -15 26 0 7
-8 15 -17 18 -10 3 -47 33 -83 66 -36 33 -69 60 -75 61 -24 2 -45 9 -124 43
-46 20 -94 37 -107 38 -13 1 -24 5 -24 8 0 3 -10 6 -22 7 -48 4 -124 15 -153
22 -16 4 -69 6 -117 5 -49 -1 -88 2 -88 6 0 4 -7 11 -16 14 -10 4 -13 2 -8 -7
6 -9 4 -9 -7 -1 -8 6 -23 11 -34 11 -11 0 -26 -5 -34 -11 -11 -8 -13 -8 -7 2
12 19 -12 14 -34 -8z m-244 -62 c4 -6 3 -8 -3 -5 -5 3 -16 -3 -23 -14 -8 -10
-19 -19 -24 -19 -5 0 1 11 14 25 27 29 27 29 36 13z m1574 -3544 c0 -2 -9 -8
-20 -14 -15 -8 -18 -8 -14 3 4 11 34 21 34 11z m-85 -405 c11 -17 -1 -21 -15
-4 -8 9 -8 15 -2 15 6 0 14 -5 17 -11z m-1389 -35 c-3 -21 -33 -39 -33 -20 0
8 7 12 14 9 8 -3 13 -2 12 3 -2 13 0 24 5 24 2 0 3 -7 2 -16z m-65 -37 c-10
-9 -11 -8 -5 6 3 10 9 15 12 12 3 -3 0 -11 -7 -18z m-157 -3 c3 -8 2 -12 -4
-9 -6 3 -10 10 -10 16 0 14 7 11 14 -7z m1418 -26 c-7 -7 -12 -8 -12 -2 0 14
12 26 19 19 2 -3 -1 -11 -7 -17z m-1387 -35 c0 -21 -1 -22 -12 -6 -9 12 -13
13 -13 3 0 -7 -2 -11 -5 -8 -9 8 5 35 18 35 7 0 12 -11 12 -24z m1370 17 c3
-5 1 -10 -4 -10 -6 0 -11 5 -11 10 0 6 2 10 4 10 3 0 8 -4 11 -10z"/>
<path d="M4439 1573 c-13 -16 -12 -17 4 -4 9 7 17 15 17 17 0 8 -8 3 -21 -13z"/>
<path d="M4356 1307 c3 -10 9 -15 12 -12 3 3 0 11 -7 18 -10 9 -11 8 -5 -6z"/>
<path d="M4046 1102 c-3 -5 1 -9 9 -9 8 0 12 4 9 9 -3 4 -7 8 -9 8 -2 0 -6 -4
-9 -8z"/>
<path d="M4099 1068 c-5 -18 -6 -38 -1 -34 7 8 12 36 6 36 -2 0 -4 -1 -5 -2z"/>
<path d="M4029 1043 c-13 -16 -12 -17 4 -4 16 13 21 21 13 21 -2 0 -10 -8 -17
-17z"/>
<path d="M1375 1020 c3 -5 8 -10 11 -10 2 0 4 5 4 10 0 6 -5 10 -11 10 -5 0
-7 -4 -4 -10z"/>
<path d="M4033 1007 c0 -8 6 -14 14 -14 9 0 10 4 2 14 -6 7 -12 13 -14 13 -1
0 -2 -6 -2 -13z"/>
<path d="M4187 979 c7 -7 15 -10 18 -7 3 3 -2 9 -12 12 -14 6 -15 5 -6 -5z"/>
<path d="M4090 959 c0 -5 5 -7 10 -4 6 3 10 8 10 11 0 2 -4 4 -10 4 -5 0 -10
-5 -10 -11z"/>
<path d="M4060 940 c8 -5 20 -10 25 -10 6 0 3 5 -5 10 -8 5 -19 10 -25 10 -5
0 -3 -5 5 -10z"/>
<path d="M4070 916 c0 -2 8 -10 18 -17 15 -13 16 -12 3 4 -13 16 -21 21 -21
13z"/>
<path d="M4034 902 c3 -5 0 -13 -6 -15 -9 -4 -10 -6 -1 -6 17 -1 25 16 12 25
-7 4 -9 3 -5 -4z"/>
<path d="M4090 839 c0 -5 5 -7 10 -4 6 3 10 8 10 11 0 2 -4 4 -10 4 -5 0 -10
-5 -10 -11z"/>
<path d="M3969 817 c8 -9 16 -15 19 -12 3 3 11 0 19 -7 11 -8 12 -7 7 6 -4 10
-12 15 -19 12 -7 -2 -19 1 -26 7 -10 10 -10 8 0 -6z"/>
<path d="M4025 820 c-3 -6 1 -7 9 -4 18 7 21 14 7 14 -6 0 -13 -4 -16 -10z"/>
<path d="M4036 802 c-3 -5 1 -9 9 -9 8 0 12 4 9 9 -3 4 -7 8 -9 8 -2 0 -6 -4
-9 -8z"/>
<path d="M4090 799 c0 -5 5 -7 10 -4 6 3 10 8 10 11 0 2 -4 4 -10 4 -5 0 -10
-5 -10 -11z"/>
<path d="M4034 748 l-19 -23 23 19 c21 18 27 26 19 26 -2 0 -12 -10 -23 -22z"/>
<path d="M4120 740 c-8 -5 -10 -10 -5 -10 6 0 17 5 25 10 8 5 11 10 5 10 -5 0
-17 -5 -25 -10z"/>
<path d="M3988 733 c7 -3 16 -2 19 1 4 3 -2 6 -13 5 -11 0 -14 -3 -6 -6z"/>
<path d="M3960 706 c0 -2 8 -10 18 -17 15 -13 16 -12 3 4 -13 16 -21 21 -21
13z"/>
<path d="M3910 680 c0 -5 5 -10 10 -10 6 0 10 5 10 10 0 6 -4 10 -10 10 -5 0
-10 -4 -10 -10z"/>
<path d="M4095 680 c-3 -5 -1 -10 4 -10 6 0 11 5 11 10 0 6 -2 10 -4 10 -3 0
-8 -4 -11 -10z"/>
<path d="M3847 664 c4 -12 2 -15 -8 -12 -8 3 -22 -1 -31 -10 -15 -12 -18 -13
-18 -1 -1 8 -7 3 -14 -10 -7 -13 -11 -33 -9 -45 4 -17 3 -18 -6 -6 -12 17 -15
1 -3 -18 11 -17 34 31 26 55 -5 17 -5 17 9 0 13 -16 15 -16 21 -2 4 10 11 13
18 8 20 -12 38 -12 38 -1 0 6 -7 8 -15 5 -8 -4 -17 -2 -20 2 -8 14 26 22 41
10 8 -6 14 -8 14 -3 0 5 -12 17 -25 27 -22 16 -24 16 -18 1z m-17 -18 c0 -2
-8 -10 -17 -17 -16 -13 -17 -12 -4 4 13 16 21 21 21 13z"/>
<path d="M3933 656 c-3 -6 -3 -8 2 -4 4 4 13 3 20 -2 8 -7 12 -5 12 3 0 16
-25 18 -34 3z"/>
<path d="M3933 625 c0 -8 4 -12 9 -9 5 3 6 10 3 15 -9 13 -12 11 -12 -6z"/>
<path d="M4070 636 c0 -2 8 -10 18 -17 15 -13 16 -12 3 4 -13 16 -21 21 -21
13z"/>
<path d="M4050 599 c0 -5 5 -7 10 -4 6 3 10 8 10 11 0 2 -4 4 -10 4 -5 0 -10
-5 -10 -11z"/>
<path d="M3849 584 c-11 -14 -24 -52 -14 -42 2 1 3 6 2 9 -1 4 7 16 17 28 11
12 17 21 14 21 -3 0 -12 -7 -19 -16z"/>
<path d="M2350 581 c0 -6 4 -13 10 -16 6 -3 7 1 4 9 -7 18 -14 21 -14 7z"/>
<path d="M3797 569 c7 -7 15 -10 18 -7 3 3 -2 9 -12 12 -14 6 -15 5 -6 -5z"/>
<path d="M4053 555 c0 -8 4 -12 9 -9 5 3 6 10 3 15 -9 13 -12 11 -12 -6z"/>
<path d="M2497 551 c6 -7 9 -21 6 -30 -4 -12 -3 -13 5 -2 8 11 13 10 30 -5 12
-10 19 -21 16 -26 -3 -4 0 -8 5 -8 17 0 13 9 -14 42 -14 16 -25 26 -25 23 0
-4 -8 -1 -17 6 -15 11 -16 11 -6 0z"/>
<path d="M3879 533 c-13 -16 -12 -17 4 -4 16 13 21 21 13 21 -2 0 -10 -8 -17
-17z"/>
<path d="M3666 533 c-6 -6 -25 -11 -67 -15 -17 -2 -14 -48 3 -48 5 0 7 4 4 8
-2 4 0 14 5 22 8 12 9 11 7 -4 -2 -10 3 -21 10 -23 8 -3 10 1 5 14 -6 16 -5
16 10 5 9 -8 13 -21 10 -30 -3 -10 1 -8 11 6 10 12 22 19 28 16 7 -4 8 -2 4 5
-4 6 -12 9 -17 5 -6 -3 -8 5 -5 20 5 27 4 30 -8 19z m0 -35 c0 -10 -1 -18 -1
-18 0 0 -8 9 -17 19 -16 18 -15 20 1 18 9 0 17 -9 17 -19z"/>
<path d="M3716 514 c-9 -24 -7 -31 10 -38 14 -5 15 -4 5 8 -6 7 -9 21 -5 30 3
9 4 16 1 16 -3 0 -8 -7 -11 -16z"/>
<path d="M3775 509 c-4 -6 -14 -8 -24 -4 -13 5 -14 4 -3 -6 10 -11 15 -10 29
4 10 9 14 17 11 17 -4 0 -10 -5 -13 -11z"/>
<path d="M3813 505 c0 -8 4 -15 9 -15 4 0 8 4 8 9 0 6 -4 12 -8 15 -5 3 -9 -1
-9 -9z"/>
<path d="M4390 500 c0 -5 5 -10 11 -10 5 0 7 5 4 10 -3 6 -8 10 -11 10 -2 0
-4 -4 -4 -10z"/>
<path d="M3684 462 c4 -3 14 -7 22 -8 9 -1 13 0 10 4 -4 3 -14 7 -22 8 -9 1
-13 0 -10 -4z"/>
<path d="M3796 453 c-6 -14 -5 -15 5 -6 7 7 10 15 7 18 -3 3 -9 -2 -12 -12z"/>
<path d="M3975 451 c-3 -5 -2 -12 3 -15 5 -3 9 1 9 9 0 17 -3 19 -12 6z"/>
<path d="M3575 440 c-3 -5 -1 -10 4 -10 6 0 11 5 11 10 0 6 -2 10 -4 10 -3 0
-8 -4 -11 -10z"/>
<path d="M3433 425 c0 -8 4 -12 9 -9 5 3 6 10 3 15 -9 13 -12 11 -12 -6z"/>
<path d="M3836 418 c3 -5 10 -6 15 -3 13 9 11 12 -6 12 -8 0 -12 -4 -9 -9z"/>
<path d="M3606 402 c-3 -5 1 -9 9 -9 8 0 12 4 9 9 -3 4 -7 8 -9 8 -2 0 -6 -4
-9 -8z"/>
<path d="M3874 402 c4 -3 14 -7 22 -8 9 -1 13 0 10 4 -4 3 -14 7 -22 8 -9 1
-13 0 -10 -4z"/>
<path d="M3655 380 c-3 -5 -1 -10 4 -10 6 0 11 5 11 10 0 6 -2 10 -4 10 -3 0
-8 -4 -11 -10z"/>
<path d="M3710 386 c0 -2 7 -7 16 -10 8 -3 12 -2 9 4 -6 10 -25 14 -25 6z"/>
<path d="M3774 362 c4 -3 14 -7 22 -8 9 -1 13 0 10 4 -4 3 -14 7 -22 8 -9 1
-13 0 -10 -4z"/>
</g>
</svg>
